<?xml version="1.0" encoding="UTF-8"?>
<svg width="190.39mm" height="67.296mm" version="1.1" viewBox="0 0 190.39 67.296" xmlns="http://www.w3.org/2000/svg"><g transform="translate(-11.111 -10.861)" fill="#808080"><g transform="translate(0 -7.9556e-5)"><path d="m11.195 10.944v5.5802h19.641v55.8h-19.641v5.5802h30.801v-66.96zm36.157 0v66.96h30.802v-5.5802h-19.641v-55.8h19.641v-5.5802z" stroke-width=".1674" style="-inkscape-stroke:none"/><path d="m11.111 10.861v5.7461h19.641v55.633h-19.641v5.748h30.967v-67.127zm36.156 0v67.127h30.971v-5.748h-19.643v-55.633h19.643v-5.7461zm-35.988 0.16602h30.633v66.793h-30.633v-5.4121h19.641v-55.967h-19.641zm36.156 0h30.635v5.4141h-19.643v55.967h19.643v5.4121h-30.635v-61.297z" style="-inkscape-stroke:none"/></g><g transform="matrix(.85256 0 0 .85256 -86.472 -698.96)" style="shape-inside:url(#rect31347-8-4-4-5);white-space:pre" aria-label="DAVID  "><path d="m199.54 868.09v-35.28h7.92q1.872 0 3.648 0.624 1.824 0.57601 3.216 1.872 1.44 1.248 2.256 2.928 0.864 1.68 1.2 3.504 0.384 1.824 0.384 3.696v10.032q0 1.872-0.384 3.696-0.336 1.824-1.2 3.504-0.816 1.68-2.256 2.976-1.392 1.248-3.216 1.872-1.776 0.57601-3.648 0.57601zm3.84-3.456h4.08q1.632 0 3.072-0.768 1.44-0.81601 2.256-2.208 0.864-1.44 1.2-3.024t0.336-3.168v-10.032q0-1.584-0.336-3.168t-1.2-2.976q-0.816-1.44-2.256-2.208-1.44-0.81601-3.072-0.81601h-4.08z"/><path d="m223.54 868.09v-3.552q0-9.5521 6.912-31.728h4.416q6.912 22.176 6.912 31.728v3.552h-3.84v-3.552q0-2.4-0.432-5.712h-9.696q-0.432 3.312-0.432 5.712v3.552zm4.752-12.72h8.736q-1.296-7.728-4.368-19.104-3.072 11.376-4.368 19.104z"/><path d="m254.45 868.09q-6.912-22.176-6.912-31.776v-3.504h3.84v3.504q0 8.7841 5.28 28.32 5.28-19.536 5.28-28.32v-3.504h3.84v3.504q0 9.6001-6.912 31.776z"/><path d="m273.94 868.09v-3.456h4.8v-28.368h-4.8v-3.456h13.44v3.456h-4.8v28.368h4.8v3.456z"/><path d="m295.54 868.09v-35.28h7.92q1.872 0 3.648 0.624 1.824 0.57601 3.216 1.872 1.44 1.248 2.256 2.928 0.864 1.68 1.2 3.504 0.384 1.824 0.384 3.696v10.032q0 1.872-0.384 3.696-0.336 1.824-1.2 3.504-0.816 1.68-2.256 2.976-1.392 1.248-3.216 1.872-1.776 0.57601-3.648 0.57601zm3.84-3.456h4.08q1.632 0 3.072-0.768 1.44-0.81601 2.256-2.208 0.864-1.44 1.2-3.024t0.336-3.168v-10.032q0-1.584-0.336-3.168t-1.2-2.976q-0.816-1.44-2.256-2.208-1.44-0.81601-3.072-0.81601h-4.08z"/></g><g transform="matrix(.85256 0 0 .85256 -86.472 -662.27)" style="shape-inside:url(#rect147381-7-9);white-space:pre" aria-label="CORREA  "><path d="m208.66 868.47q-1.92 0-3.792-0.624-1.824-0.624-3.216-2.016-1.344-1.44-1.92-3.312t-0.576-3.792v-16.56q0-1.92 0.576-3.792t1.92-3.264q1.392-1.44 3.216-2.064 1.872-0.624 3.792-0.624 2.256 0 4.368 0.912 2.112 0.864 3.408 2.784t1.584 4.128l-3.744 0.672q-0.192-1.344-0.96-2.592-0.72-1.248-2.016-1.824-1.248-0.624-2.64-0.624-1.2 0-2.352 0.48-1.104 0.432-1.92 1.392-0.768 0.912-1.104 2.064-0.288 1.152-0.288 2.352v16.56q0 1.2 0.288 2.352 0.336 1.152 1.104 2.112 0.816 0.912 1.92 1.392 1.152 0.432 2.352 0.432 1.392 0 2.64-0.576 1.296-0.624 2.016-1.872 0.768-1.248 0.96-2.592l3.744 0.672q-0.24 1.68-1.008 3.216-0.768 1.488-2.112 2.592-1.296 1.056-2.928 1.536t-3.312 0.48z"/><path d="m232.66 868.47q-1.92 0-3.792-0.624-1.824-0.624-3.216-2.016-1.344-1.44-1.92-3.312t-0.576-3.792v-16.56q0-1.92 0.576-3.792t1.92-3.264q1.392-1.44 3.216-2.064 1.872-0.624 3.792-0.624t3.744 0.624q1.872 0.624 3.216 2.064 1.392 1.392 1.968 3.264t0.576 3.792v16.56q0 1.92-0.576 3.792t-1.968 3.312q-1.344 1.392-3.216 2.016-1.824 0.624-3.744 0.624zm0-3.456q1.2 0 2.304-0.432 1.152-0.48 1.92-1.392 0.816-0.96 1.104-2.112 0.336-1.152 0.336-2.352v-16.56q0-1.2-0.336-2.352-0.288-1.152-1.104-2.064-0.768-0.96-1.92-1.392-1.104-0.48-2.304-0.48t-2.352 0.48q-1.104 0.432-1.92 1.392-0.768 0.912-1.104 2.064-0.288 1.152-0.288 2.352v16.56q0 1.2 0.288 2.352 0.336 1.152 1.104 2.112 0.816 0.912 1.92 1.392 1.152 0.432 2.352 0.432z"/><path d="m247.54 868.09v-35.28h9.168q1.968 0 3.84 0.672t3.168 2.16q1.344 1.488 1.872 3.408 0.576 1.872 0.576 3.84 0 1.92-0.576 3.84-0.528 1.872-1.872 3.36-1.296 1.488-3.168 2.16-0.336 0.144-0.672 0.24 6.288 9.168 6.288 15.6h-3.84q0-6.144-6.672-15.12h-4.272v15.12zm9.168-18.576q1.248 0 2.352-0.48 1.152-0.528 1.92-1.536t1.056-2.208 0.288-2.4q0-1.248-0.288-2.448t-1.056-2.16q-0.768-1.008-1.92-1.488-1.104-0.528-2.352-0.528h-5.328v13.248z"/><path d="m271.54 868.09v-35.28h9.168q1.968 0 3.84 0.672t3.168 2.16q1.344 1.488 1.872 3.408 0.576 1.872 0.576 3.84 0 1.92-0.576 3.84-0.528 1.872-1.872 3.36-1.296 1.488-3.168 2.16-0.336 0.144-0.672 0.24 6.288 9.168 6.288 15.6h-3.84q0-6.144-6.672-15.12h-4.272v15.12zm9.168-18.576q1.248 0 2.352-0.48 1.152-0.528 1.92-1.536t1.056-2.208 0.288-2.4q0-1.248-0.288-2.448t-1.056-2.16q-0.768-1.008-1.92-1.488-1.104-0.528-2.352-0.528h-5.328v13.248z"/><path d="m296.98 868.09v-35.28h16.8v3.456h-12.96v11.04h10.224v3.456h-10.224v13.872h12.96v3.456z"/><path d="m319.54 868.09v-3.552q0-9.552 6.912-31.728h4.416q6.912 22.176 6.912 31.728v3.552h-3.84v-3.552q0-2.4-0.432-5.712h-9.696q-0.432 3.312-0.432 5.712v3.552zm4.752-12.72h8.736q-1.296-7.728-4.368-19.104-3.072 11.376-4.368 19.104z"/></g></g></svg>
